<svg width="74" height="46" viewBox="0 0 74 46" fill="none" xmlns="http://www.w3.org/2000/svg">
<path d="M70.5658 36.4413L64.101 42.7426C62.322 44.476 59.9373 45.4465 57.4552 45.4465C55.7486 45.4465 54.0623 44.9731 52.6467 44.0183C51.2924 43.106 50.1771 41.846 49.4331 40.3391L45.5479 32.4665C42.0559 25.3897 31.9654 25.3897 28.4734 32.4665L24.5882 40.3391C23.8442 41.846 22.7274 43.106 21.3746 44.0183C20.0219 44.9306 18.2743 45.4465 16.5677 45.4465C14.084 45.4465 11.6994 44.476 9.92192 42.7426L3.45705 36.4413C-2.19302 30.936 0.924587 21.3394 8.73276 20.2037L17.4202 18.9406C20.5205 18.4907 23.2009 16.5434 24.5882 13.7325L28.4734 5.85985C31.9654 -1.21533 42.0559 -1.21533 45.5479 5.85985L49.4331 13.7325C50.8205 16.5434 53.5008 18.4907 56.6027 18.9406L65.2886 20.2037C73.0983 21.3378 76.2159 30.9344 70.5658 36.4413Z" fill="url(#paint0_radial_18_1834)"/>
<defs>
<radialGradient id="paint0_radial_18_1834" cx="0" cy="0" r="1" gradientUnits="userSpaceOnUse" gradientTransform="translate(37.3359 19.4492) rotate(-122.83) scale(48.9057 79.3934)">
<stop stop-color="#FFA6ED"/>
<stop offset="0.350962" stop-color="#FF9102"/>
<stop offset="0.351062" stop-color="#FF9102"/>
<stop offset="0.836538" stop-color="white"/>
</radialGradient>
</defs>
</svg>
